HIERARCHY
ROOT Hips
{
	OFFSET 0.00000 0.00000 0.00000
	CHANNELS 6 Xposition Yposition Zposition Zrotation Yrotation Xrotation 
	JOINT LHipJoint
	{
		OFFSET 0 0 0
		CHANNELS 3 Zrotation Yrotation Xrotation
		JOINT LeftUpLeg
		{
			OFFSET 1.60223 -1.58443 0.78595
			CHANNELS 3 Zrotation Yrotation Xrotation
			JOINT LeftLeg
			{
				OFFSET 2.21690 -6.09089 0.00000
				CHANNELS 3 Zrotation Yrotation Xrotation
				JOINT LeftFoot
				{
					OFFSET 2.34805 -6.45122 0.00000
					CHANNELS 3 Zrotation Yrotation Xrotation
					JOINT LeftToeBase
					{
						OFFSET 0.35452 -0.97402 1.38549
						CHANNELS 3 Zrotation Yrotation Xrotation
						End Site
						{
							OFFSET 0.00000 -0.00000 0.82816
						}
					}
				}
			}
		}
	}
	JOINT RHipJoint
	{
		OFFSET 0 0 0
		CHANNELS 3 Zrotation Yrotation Xrotation
		JOINT RightUpLeg
		{
			OFFSET -1.56524 -1.58443 0.78595
			CHANNELS 3 Zrotation Yrotation Xrotation
			JOINT RightLeg
			{
				OFFSET -2.15558 -5.92241 0.00000
				CHANNELS 3 Zrotation Yrotation Xrotation
				JOINT RightFoot
				{
					OFFSET -2.35077 -6.45870 0.00000
					CHANNELS 3 Zrotation Yrotation Xrotation
					JOINT RightToeBase
					{
						OFFSET -0.26910 -0.73935 1.33295
						CHANNELS 3 Zrotation Yrotation Xrotation
						End Site
						{
							OFFSET -0.00000 -0.00000 0.75962
						}
					}
				}
			}
		}
	}
	JOINT LowerBack
	{
		OFFSET 0 0 0
		CHANNELS 3 Zrotation Yrotation Xrotation
		JOINT Spine
		{
			OFFSET -0.05489 1.97104 -0.02993
			CHANNELS 3 Zrotation Yrotation Xrotation
			JOINT Spine1
			{
				OFFSET -0.00702 1.94230 0.13626
				CHANNELS 3 Zrotation Yrotation Xrotation
				JOINT Neck
				{
					OFFSET 0 0 0
					CHANNELS 3 Zrotation Yrotation Xrotation
					JOINT Neck1
					{
						OFFSET -0.07858 1.62869 -0.02510
						CHANNELS 3 Zrotation Yrotation Xrotation
						JOINT Head
						{
							OFFSET 0.13978 1.59213 -0.29859
							CHANNELS 3 Zrotation Yrotation Xrotation
							End Site
							{
								OFFSET 0.05353 1.64420 -0.10000
							}
						}
					}
				}
				JOINT LeftShoulder
				{
					OFFSET 0 0 0
					CHANNELS 3 Zrotation Yrotation Xrotation
					JOINT LeftArm
					{
						OFFSET 3.48263 1.15278 0.52941
						CHANNELS 3 Zrotation Yrotation Xrotation
						JOINT LeftForeArm
						{
							OFFSET 4.59207 -0.00000 -0.00000
							CHANNELS 3 Zrotation Yrotation Xrotation
							JOINT LeftHand
							{
								OFFSET 2.98109 -0.00000 -0.00000
								CHANNELS 3 Zrotation Yrotation Xrotation
								JOINT LeftFingerBase
								{
									OFFSET 0 0 0
									CHANNELS 3 Zrotation Yrotation Xrotation
									JOINT LeftHandIndex1
									{
										OFFSET 0.48020 -0.00000 -0.00000
										CHANNELS 3 Zrotation Yrotation Xrotation
										End Site
										{
											OFFSET 0.38715 -0.00000 -0.00000
										}
									}
								}
								JOINT LThumb
								{
									OFFSET 0 0 0
									CHANNELS 3 Zrotation Yrotation Xrotation
									End Site
									{
										OFFSET 0.39306 -0.00000 0.39306
									}
								}
							}
						}
					}
				}
				JOINT RightShoulder
				{
					OFFSET 0 0 0
					CHANNELS 3 Zrotation Yrotation Xrotation
					JOINT RightArm
					{
						OFFSET -3.52496 1.12722 0.24548
						CHANNELS 3 Zrotation Yrotation Xrotation
						JOINT RightForeArm
						{
							OFFSET -4.76508 -0.00000 -0.00000
							CHANNELS 3 Zrotation Yrotation Xrotation
							JOINT RightHand
							{
								OFFSET -2.78902 -0.00000 -0.00000
								CHANNELS 3 Zrotation Yrotation Xrotation
								JOINT RightFingerBase
								{
									OFFSET 0 0 0
									CHANNELS 3 Zrotation Yrotation Xrotation
									JOINT RightHandIndex1
									{
										OFFSET -0.72130 -0.00000 -0.00000
										CHANNELS 3 Zrotation Yrotation Xrotation
										End Site
										{
											OFFSET -0.58153 -0.00000 -0.00000
										}
									}
								}
								JOINT RThumb
								{
									OFFSET 0 0 0
									CHANNELS 3 Zrotation Yrotation Xrotation
									End Site
									{
										OFFSET -0.59041 -0.00000 0.59041
									}
								}
							}
						}
					}
				}
			}
		}
	}
}
MOTION
Frames: 10
Frame Time: .0083333
2.7845 15.1179 -0.3068 546.6200 -156.4260 -537.3580 0.0000 0.0000 0.0000 -30.5241 -14.9845 -20.8644 7.8900 16.0378 52.1655 2.4203 -14.2541 -28.2800 1.6111 -8.0040 -22.7264 0.0000 0.0000 0.0000 -2.0974 8.6706 -37.9272 -13.7566 -19.0386 71.4599 -0.4196 -7.8608 -17.5580 -0.6260 5.0628 -14.0876 2.2220 9.2692 6.8960 -1.5604 12.5797 -5.0604 -4.5277 5.9705 -8.3447 -6.9376 0.8597 0.8120 5.4920 1.0438 2.0721 2.9709 0.4989 0.4450 0.0000 0.0000 0.0000 -61.8189 9.1349 -35.7038 137.6511 -49.4016 -99.7949 -0.0000 0.0000 -50.7172 -37.0973 44.7525 -28.0314 -7.1250 0.0000 -0.0000 -81.6987 57.0893 -40.5249 0.0000 0.0000 0.0000 71.8945 2.5782 50.0339 -45.4051 50.9654 -22.5530 0.0000 0.0000 17.7669 0.1054 55.6467 0.0870 7.1250 -0.0000 -0.0000 19.4420 23.1475 26.6524
2.4551 15.1568 -0.2448 546.9480 -160.4730 -536.2900 0.0000 0.0000 0.0000 -29.6348 -16.8263 -20.2010 7.6398 15.8478 51.2548 2.1984 -15.9508 -27.2906 1.6178 -8.0200 -22.7749 0.0000 0.0000 0.0000 -5.2353 11.0840 -37.0380 -12.1449 -18.4512 66.4473 -0.4934 -10.0006 -20.4441 -0.4157 4.1385 -11.4667 1.8277 9.2012 6.2579 -1.7023 12.4284 -5.1507 -4.3465 5.9291 -8.1368 -5.2215 2.5543 0.5762 3.1057 3.3599 1.8393 1.8529 1.6620 0.3271 -0.0000 -0.0000 0.0000 -62.4712 8.4233 -35.1389 136.6218 -49.9488 -99.0102 -0.0000 0.0000 -47.4146 -31.7619 46.9610 -24.3466 -7.1250 0.0000 -0.0000 -81.2267 59.3057 -44.0726 -0.0000 -0.0000 0.0000 72.3141 2.5849 51.1994 -46.8721 51.6533 -23.6980 0.0000 0.0000 17.4913 -0.4011 54.2917 -0.3257 7.1250 -0.0000 -0.0000 19.0582 21.9189 25.8818
2.1021 15.2116 -0.1788 547.1700 -164.7690 -535.7060 0.0000 0.0000 0.0000 -28.5732 -18.4154 -18.8716 7.3124 15.5894 50.0461 1.8908 -17.9324 -25.9785 1.5895 -7.9528 -22.5708 0.0000 0.0000 0.0000 -7.8590 13.3250 -34.4457 -10.3246 -17.5884 60.5678 -0.5773 -11.6557 -22.9212 -0.2527 3.2348 -8.9330 1.5135 9.1445 6.1599 -1.8449 12.3111 -5.1303 -4.3001 5.8890 -8.0997 -4.7908 3.6676 0.4372 2.1631 4.8651 1.5760 1.4662 2.4166 0.2380 0.0000 0.0000 0.0000 -63.1380 7.7078 -34.1606 136.0373 -50.2501 -98.5617 -0.0000 0.0000 -43.6727 -25.1311 48.3638 -19.3203 -7.1250 0.0000 -0.0000 -78.8689 61.6865 -45.6813 0.0000 0.0000 0.0000 72.6923 2.1179 52.6635 -49.0005 52.5843 -25.3781 0.0000 0.0000 16.3459 -0.9468 53.1642 -0.7578 7.1250 -0.0000 -0.0000 18.6909 20.9098 25.1697
1.7271 15.2802 -0.1074 547.4760 -169.2630 -535.1060 0.0000 0.0000 0.0000 -27.3532 -20.0931 -17.5061 6.9290 15.2718 48.6054 1.5283 -20.0023 -24.5170 1.6110 -8.0039 -22.7260 0.0000 0.0000 0.0000 -10.0858 15.3485 -31.2158 -8.4756 -16.4582 54.2582 -0.6408 -13.1763 -25.0372 -0.9913 6.3367 -17.7645 1.0522 9.1555 6.1170 -2.1617 12.2615 -5.2206 -4.3881 5.8790 -8.2022 -4.6273 4.2148 0.7105 1.9191 5.5853 0.9982 1.3407 2.7813 0.0002 -0.0000 -0.0000 0.0000 -63.6844 6.9923 -32.7056 135.7145 -50.4136 -98.3133 -0.0000 0.0000 -39.4979 -17.5777 48.8127 -13.4093 -7.1250 0.0000 -0.0000 -74.4144 64.0958 -45.1344 -0.0000 -0.0000 0.0000 73.4263 1.2668 53.8252 -51.2647 53.4930 -27.1875 0.0000 0.0000 15.2622 -1.2289 52.6620 -0.9771 7.1250 -0.0000 -0.0000 18.5112 20.4648 24.8296
1.3378 15.3513 -0.0191 547.6990 -173.7160 -534.5960 0.0000 0.0000 0.0000 -25.9440 -21.7954 -16.0726 6.5171 14.9114 47.0235 1.1376 -22.0061 -23.0239 1.5604 -7.8832 -22.3598 0.0000 0.0000 0.0000 -11.8392 17.8994 -27.1176 -6.6962 -15.0707 47.7159 -0.5072 -15.0988 -26.0393 -1.3288 7.2998 -20.6066 0.5932 9.1708 6.0000 -2.3456 12.2250 -5.1793 -4.3129 5.8864 -8.1473 -4.8111 4.3672 0.7547 1.7463 5.7860 0.7038 1.3103 2.8840 -0.1047 0.0000 -0.0000 0.0000 -64.7917 6.3939 -31.3215 135.7638 -50.3888 -98.3513 -0.0000 0.0000 -35.4098 -9.8572 48.8379 -7.4528 -7.1250 0.0000 -0.0000 -68.9987 66.4969 -43.6350 0.0000 -0.0000 0.0000 74.3011 1.1962 54.9977 -52.0869 53.8033 -27.8496 0.0000 0.0000 15.0642 -1.2258 51.1279 -0.9544 7.1250 -0.0000 -0.0000 18.3212 19.0129 24.2921
0.9329 15.4290 0.0777 547.4750 -178.1060 -534.2230 0.0000 0.0000 0.0000 -23.9339 -23.0282 -14.7786 6.0910 14.5159 45.3458 0.7140 -24.0601 -21.5301 1.6748 -8.1530 -23.1799 0.0000 0.0000 0.0000 -12.2390 20.5853 -22.7860 -5.1756 -13.5789 41.5759 -0.4037 -16.7576 -27.1596 -1.5923 7.9596 -22.5914 0.3947 9.1198 5.9574 -2.1756 12.1479 -4.9775 -3.9989 5.8719 -7.9875 -5.3872 4.3677 0.3575 1.6411 5.8063 0.7724 1.3864 2.8935 -0.0318 0.0000 -0.0000 0.0000 -66.4821 5.9228 -30.3094 136.0385 -50.2495 -98.5627 -0.0000 0.0000 -32.0951 -3.5084 49.3872 -2.6648 -7.1250 0.0000 -0.0000 -65.6362 68.7936 -43.6652 0.0000 -0.0000 0.0000 74.6387 1.6124 57.1902 -52.4699 53.9444 -28.1590 0.0000 0.0000 14.0266 -2.0490 49.7181 -1.5634 7.1250 -0.0000 -0.0000 17.8067 17.7668 23.3207
0.5193 15.4914 0.1817 546.7580 -182.6740 -533.8810 0.0000 0.0000 0.0000 -21.2900 -24.4096 -13.8329 5.7173 14.1487 43.8365 0.3069 -25.7877 -20.1173 2.0300 -8.9282 -25.5711 0.0000 0.0000 0.0000 -11.3393 22.2513 -18.9340 -3.9633 -12.1115 36.1274 -0.1509 -16.3288 -24.5427 -2.0786 9.0280 -25.8829 0.8780 9.1030 5.9593 -2.0531 12.1807 -4.8808 -4.1090 5.8729 -7.8081 -5.5757 4.0850 0.0408 1.5675 5.4490 0.8826 1.4079 2.7137 0.0650 0.0000 0.0000 0.0000 -68.0191 5.4057 -29.0762 136.1826 -50.1758 -98.6734 -0.0000 0.0000 -29.7638 1.1724 50.1697 0.9004 -7.1250 0.0000 -0.0000 -64.2565 70.7215 -44.7911 0.0000 0.0000 0.0000 75.1460 1.1219 58.8417 -54.6584 54.7098 -29.9370 0.0000 0.0000 13.4114 -2.0789 48.3089 -1.5527 7.1250 -0.0000 -0.0000 17.6363 16.4334 22.8194
0.0916 15.5623 0.2915 545.8070 -187.3480 -533.5160 0.0000 0.0000 0.0000 -18.1794 -26.2090 -13.3146 5.3931 13.8133 42.4947 -0.1145 -27.1576 -18.4987 2.3689 -9.5955 -27.6764 0.0000 0.0000 0.0000 -9.7651 23.3985 -15.7808 -3.1245 -10.8939 31.9229 -0.3932 -12.6544 -22.2804 -1.7969 8.4295 -24.0265 1.4261 9.1072 5.8108 -1.8552 12.2527 -4.8865 -4.1641 5.8917 -7.6546 -5.7534 3.5614 -0.0255 1.6510 4.7549 0.8490 1.4708 2.3670 0.0848 0.0000 -0.0000 0.0000 -70.0155 5.1067 -27.7205 136.3432 -50.0932 -98.7967 -0.0000 0.0000 -28.5791 5.8359 50.3761 4.5014 -7.1250 0.0000 -0.0000 -61.6240 72.4594 -44.5057 0.0000 -0.0000 0.0000 75.7887 0.5019 60.1095 -57.1782 55.5099 -32.0040 0.0000 0.0000 13.1538 -1.4172 47.1213 -1.0386 7.1250 -0.0000 -0.0000 17.8092 15.2343 22.8152
-0.3593 15.6084 0.4072 544.7840 -191.9670 -533.2340 0.0000 0.0000 0.0000 -14.7554 -28.2899 -13.3210 5.1659 13.5682 41.5345 -0.4823 -28.2514 -17.0731 2.7268 -10.2391 -29.7544 0.0000 0.0000 0.0000 -6.9541 22.2010 -13.8995 -2.6333 -10.0763 29.2243 -0.0696 -11.1625 -16.8593 -3.1807 10.9820 -32.2191 1.8922 9.1477 5.6250 -1.7252 12.3612 -4.9884 -4.2548 5.9282 -7.5828 -6.0968 2.9536 0.0486 2.4314 3.9354 0.7953 1.7848 1.9583 0.0634 0.0000 0.0000 0.0000 -71.8985 5.1420 -26.2550 136.6278 -49.9456 -99.0148 -0.0000 0.0000 -28.6917 10.6029 50.7270 8.2457 -7.1250 0.0000 -0.0000 -59.5060 74.3673 -44.7421 0.0000 0.0000 0.0000 76.6184 0.3148 61.6888 -59.2000 56.0930 -33.6763 0.0000 0.0000 12.2631 -0.7358 45.8434 -0.5279 7.1250 -0.0000 -0.0000 18.0028 13.9505 22.8059
-0.8211 15.6542 0.5288 543.6360 -196.5270 -533.1130 0.0000 0.0000 0.0000 -11.0805 -30.4668 -13.8101 5.0241 13.4109 40.9266 -0.7253 -29.0624 -16.2421 3.2698 -11.1196 -32.6842 0.0000 0.0000 0.0000 -3.6065 19.5449 -12.2646 -2.3906 -9.6362 27.8066 -0.3171 -8.7846 -17.2347 -2.8262 10.4082 -30.3089 2.5721 9.2236 5.5250 -1.8099 12.5247 -5.1348 -4.6948 5.9745 -7.5099 -6.2065 2.2699 0.2554 3.5613 3.0069 0.5650 2.1741 1.4964 -0.0230 0.0000 0.0000 0.0000 -73.1681 5.2977 -24.6987 136.9371 -49.7834 -99.2512 -0.0000 0.0000 -29.6996 15.3196 51.5335 12.1056 -7.1250 0.0000 -0.0000 -59.4979 76.5178 -46.9600 0.0000 0.0000 0.0000 77.8217 0.4569 63.2590 -61.2587 56.6361 -35.3904 0.0000 0.0000 10.8871 -0.3720 43.7497 -0.2573 7.1250 -0.0000 -0.0000 18.0128 11.9255 22.3518
